<svg xmlns="http://www.w3.org/2000/svg" width="800" height="800">
  <path d="M382.293 36.348A516 516 0 0 1 398 48l1.646 1.264c12.82 9.863 25.014 20.365 36.869 31.364a749 749 0 0 0 4.618 4.224c8.428 7.66 16.49 15.46 23.867 24.148l2.414 2.785c15.541 18.194 15.541 18.194 15.852 26.91-2.16 18.739-18.51 38.851-32.86 50.39C444.746 193 444.746 193 441 193l1 2c.096 1.456.13 2.916.125 4.375l.008 2.336c-.13 2.222-.52 4.155-1.133 6.289l2.09 1.398c9.941 6.9 19.964 15.765 23.91 27.602 1.617 11.756-3.656 23.212-10.2 32.71-3.29 4.183-5.876 6.775-11.241 7.72-16.374.774-33.46-5.682-48.872-10.493-30.377-9.446-65.018-17.208-95.187-2.75-17.234 9.345-27.125 24.891-32.742 43.27-2.345 8.162-3.902 16.474-5.304 24.843q-.442 2.628-.916 5.252c-4.212 23.463-4.671 49.098.462 72.448l.538 2.513c3.514 16.016 8.42 31.677 13.235 47.34 7.463 24.35 7.463 24.35 7.227 33.147h2l.754-2.152C298.198 464.695 329.084 444.289 353 431l2.438-1.37C410.525 398.94 475.28 385.725 538 385.813l2.444.001c13.602.028 27.042.527 40.556 2.186l3.221.39C615.65 392.337 646.46 400.03 675 414l2.354 1.148C693.207 422.97 707.668 432.356 721 444l1.582 1.378C730.169 452.04 736.856 458.952 743 467l2.2 2.758c10.047 12.87 17.919 27.024 23.8 42.242l.796 2.047c16.985 44.678 17.727 97.803-1.756 141.68C756.3 681.4 737.394 703.898 715 721l-1.896 1.456c-58.675 44.716-134.399 62.654-206.479 70.794l-2.036.234c-26.404 2.984-52.777 3.897-79.323 3.834q-3.65-.008-7.3-.011c-25.755-.04-51.327-.701-76.966-3.307l-2.593-.257c-62.149-6.18-131.607-16.405-188.866-42.88-3.57-1.213-7.097-1.274-10.83-1.39l-5.002-.207-2.638-.1c-84.876-3.284-84.876-3.284-104.446-23.291-17.505-22.797-8.165-66.785-4.794-92.814 2.76-20.983 2.76-20.983 4.267-28.979 1.284-7.516 1.446-15.1 1.735-22.706C31.085 497.584 47.912 417.872 78 324l.801-2.462C85.451 301.123 92.424 281.263 102 262l2.895-5.98c6.342-13.01 13.256-25.635 20.477-38.174a806 806 0 0 0 4.776-8.487c11.816-21.223 24.638-41.715 38.102-61.922l1.502-2.255c9.679-14.517 19.555-28.905 30.185-42.744l2.039-2.663A770 770 0 0 1 221 76l1.498-1.798C237.049 56.81 252.61 39.602 270 25q1.62-1.414 3.238-2.832c37.739-32.978 72.75-11.382 109.055 14.18" fill="#ffdc5d"/>
  <path d="M677 554c5.478 4.33 8.06 10.17 9 17 .878 26.25-32.33 59.776-49 78-7.478 7.987-15.311 15.331-24 22l-1.598 1.255c-24.147 18.916-52.154 31.543-82.09 37.995l-2.117.458c-14.052 2.835-27.905 3.668-42.195 3.605l-2.583-.006c-13.984-.05-27.637-.763-41.417-3.307l-2.836-.52c-34.556-6.55-88.725-18.578-113.289-45.543-3.99-6.25-5.962-11.564-4.875-18.937 1.855-6.679 5.145-11.287 11-15 5.514-2.865 10.841-4.15 16.992-2.45 5.898 2.154 11.358 5.187 16.883 8.138 50.679 26.965 111.98 42.382 168.504 25.816 26.37-8.29 49.105-23.094 68.621-42.504l1.498-1.485c13.977-14.056 24.765-30.344 34.564-47.492 9.54-16.559 9.54-16.559 17.813-20.336 7.897-1.737 14.095-.655 21.125 3.313M373 128c3.164 1.918 6.106 4.09 9.063 6.313l2.353 1.724C396.568 145 396.568 145 398.188 148.75c-.456 7.894-6.151 13.67-11.418 19.11-1.89 2.285-2.818 4.348-3.77 7.14l1.56.445c5.669 1.659 11.273 3.48 16.87 5.368l2.307.777q4.765 1.604 9.526 3.222c8.489 2.88 16.87 5.666 25.652 7.547L441 193c1.15 2.3 1.232 3.815 1.313 6.375l.113 2.336c-.573 3.08-2.19 4.184-4.426 6.289q-10.779-3.305-21.558-6.616l-7.32-2.246q-5.288-1.622-10.575-3.247l-3.26-.998Q390.64 193.46 386 192l-3.296-1.026-3.215-1.03-2.878-.913c-7.821-3.089-11.954-9.172-15.361-16.605-2.316-6.347-3.415-12.753-4.25-19.426l-.278-2.146c-1.774-14.628-1.774-14.628 1.981-20.428 4.453-4.896 8.562-4.902 14.297-2.426" fill="#ee9544"/>
</svg>
